<svg xmlns="http://www.w3.org/2000/svg" viewBox="0 0 40 56">
	<path fill="#6e6e73" d="M12.94,26.67h.86l-1-6.33a2.34,2.34,0,0,1-.08-.52.91.91,0,0,1,1-.9,1,1,0,0,1,1,.86l.91,6.89h1.9l1.31-6.76a1.1,1.1,0,0,1,1.13-1,1.12,1.12,0,0,1,1.15.95l1.31,6.76h1.92l.93-6.89a.94.94,0,0,1,1-.84.87.87,0,0,1,1,.88,2.07,2.07,0,0,1-.06.45l-1,6.4h.84a.77.77,0,0,1,.8.8.79.79,0,0,1-.8.82H26l-1.21,7.87a1.06,1.06,0,0,1-1.1.94,1,1,0,0,1-1.09-.92L21,28.27h-2.1l-1.49,7.89a1,1,0,0,1-1.07.92,1.07,1.07,0,0,1-1.1-.94l-1.23-7.87H12.94a.78.78,0,0,1-.8-.8A.77.77,0,0,1,12.94,26.67Zm3.5,6.41.85-4.83H15.87Zm4.33-6.41L20,22.47l-.74,4.2Zm2.81,6.49.61-4.91H22.71Z"/>
	<path fill="#6e6e73" d="M20,10.7A17.3,17.3,0,1,1,2.7,28,17.32,17.32,0,0,1,20,10.7m0-2.2A19.5,19.5,0,1,0,39.5,28,19.5,19.5,0,0,0,20,8.5Z"/>
</svg>
