<svg width="15" height="15" viewBox="0 0 15 15" fill="none" xmlns="http://www.w3.org/2000/svg">
<path d="M13.9799 13.343L10.4799 9.84302C11.3616 8.76319 11.7948 7.38589 11.6898 5.99578C11.5849 4.60567 10.9499 3.309 9.91612 2.37375C8.88232 1.43851 7.52873 0.936183 6.13508 0.970591C4.74144 1.005 3.41428 1.57351 2.42789 2.55863C1.44151 3.54375 0.871287 4.87018 0.835087 6.26378C0.798887 7.65737 1.29947 9.01161 2.23338 10.0466C3.1673 11.0816 4.46315 11.7183 5.85313 11.825C7.2431 11.9317 8.62095 11.5003 9.70192 10.62L13.2019 14.12C13.253 14.1711 13.3136 14.2116 13.3804 14.2393C13.4471 14.2669 13.5187 14.2811 13.5909 14.2811C13.6632 14.2811 13.7347 14.2669 13.8014 14.2393C13.8682 14.2116 13.9288 14.1711 13.9799 14.12C14.031 14.0689 14.0715 14.0083 14.0992 13.9415C14.1268 13.8748 14.141 13.8033 14.141 13.731C14.141 13.6588 14.1268 13.5872 14.0992 13.5205C14.0715 13.4537 14.031 13.3931 13.9799 13.342V13.343ZM1.95892 6.41802C1.95912 5.56384 2.21259 4.72891 2.68729 4.01878C3.16198 3.30866 3.83659 2.75524 4.6258 2.42849C5.41501 2.10175 6.28339 2.01637 7.12113 2.18313C7.95886 2.34989 8.72834 2.76131 9.33226 3.36538C9.93619 3.96944 10.3474 4.73901 10.514 5.57679C10.6806 6.41457 10.595 7.28292 10.2681 8.07206C9.94113 8.86119 9.38756 9.53567 8.67732 10.0102C7.96709 10.4847 7.13209 10.738 6.27792 10.738C5.1326 10.737 4.03451 10.2814 3.22474 9.47149C2.41497 8.66153 1.95971 7.56333 1.95892 6.41802V6.41802Z" fill="white"/>
</svg>
