<svg width="14" height="17" viewBox="0 0 14 17" fill="none" xmlns="http://www.w3.org/2000/svg">
<path d="M13.0729 5.52143C12.9799 5.59373 11.3481 6.51293 11.3481 8.55783C11.3481 10.9229 13.424 11.7595 13.486 11.7801C13.4757 11.8317 13.1555 12.9265 12.3912 14.0419C11.7096 15.0231 10.9969 16.0042 9.91254 16.0042C8.82814 16.0042 8.54924 15.3742 7.29954 15.3742C6.08084 15.3742 5.64704 16.0249 4.65554 16.0249C3.66404 16.0249 2.97204 15.116 2.17684 14.0006C1.25764 12.6889 0.514038 10.6543 0.514038 8.72303C0.514038 5.62463 2.52804 3.98243 4.51094 3.98243C5.56444 3.98243 6.44224 4.67443 7.10324 4.67443C7.73324 4.67443 8.71444 3.94113 9.91244 3.94113C10.3669 3.94123 11.9988 3.98263 13.0729 5.52143ZM9.34454 2.62963C9.84024 2.04093 10.1914 1.22503 10.1914 0.409128C10.1914 0.295528 10.1811 0.181928 10.1604 0.0889282C9.35484 0.119928 8.39434 0.626029 7.81594 1.29733C7.36154 1.81373 6.93804 2.62963 6.93804 3.45593C6.93804 3.57983 6.95874 3.70383 6.96904 3.74513C7.02064 3.75543 7.10334 3.76583 7.18594 3.76583C7.90894 3.76573 8.81774 3.28033 9.34454 2.62963Z" fill="#424245"/>
</svg>
